<svg width="18" height="33" viewBox="0 0 18 33" fill="none" xmlns="http://www.w3.org/2000/svg">
<path d="M14.5729 0H3.48635C1.60177 0 0 1.5366 0 3.42119V29.4C0 31.2846 1.56788 32.8173 3.45247 32.8173L14.5573 32.8056C16.4419 32.8056 17.9837 31.2722 17.9837 29.3877L18 3.41923C18 1.52813 16.4654 0 14.5729 0ZM7.42821 2.05141H10.6448C10.9276 2.05141 11.1576 2.28079 11.1576 2.56426C11.1576 2.84773 10.9276 3.07711 10.6448 3.07711H7.42821C7.14474 3.07711 6.91536 2.84773 6.91536 2.56426C6.91536 2.28079 7.14474 2.05141 7.42821 2.05141ZM5.4954 2.21432C5.68569 2.02469 6.03106 2.02208 6.22134 2.21432C6.31649 2.30946 6.37253 2.4424 6.37253 2.5786C6.37253 2.71219 6.31649 2.84512 6.22134 2.94026C6.12686 3.03541 5.99327 3.09145 5.85968 3.09145C5.72413 3.09145 5.59315 3.03541 5.4954 2.94026C5.40091 2.84512 5.34683 2.71219 5.34683 2.5786C5.34617 2.4424 5.40091 2.30946 5.4954 2.21432ZM8.93288 31.8014C8.08703 31.8014 7.39888 31.1126 7.39888 30.2667C7.39888 29.4209 8.08703 28.7321 8.93288 28.7321C9.77873 28.7321 10.4669 29.4202 10.4669 30.2667C10.4669 31.1126 9.77873 31.8014 8.93288 31.8014ZM16.4087 27.6894H1.79466V4.87177H16.4087V27.6894Z" fill="white"/>
</svg>
