<svg width="23" height="18" viewBox="0 0 23 18" fill="none" xmlns="http://www.w3.org/2000/svg">
<path d="M20.9785 0H2.02137C1.71006 0 1.41897 0.0763675 1.15527 0.202598L11.455 10.5023L13.7635 8.28362C13.7635 8.28362 13.7635 8.28317 13.764 8.28317C13.7644 8.28317 13.7644 8.28317 13.7644 8.28317L21.845 0.202598C21.5813 0.0768167 21.2898 0 20.9785 0Z" fill="white"/>
<path d="M22.7977 1.15585L15.1929 8.7598L22.7973 16.3642C22.9235 16.1005 22.9999 15.8094 22.9999 15.4981V2.02149C22.9999 1.71063 22.9235 1.41909 22.7977 1.15585Z" fill="white"/>
<path d="M0.202598 1.1554C0.0763674 1.41909 0 1.71018 0 2.02149V15.4981C0 15.809 0.0763674 16.1005 0.202598 16.3637L7.807 8.7598L0.202598 1.1554Z" fill="white"/>
<path d="M14.2401 9.71259L11.9311 11.9313C11.7995 12.0629 11.627 12.1285 11.455 12.1285C11.2829 12.1285 11.11 12.0629 10.9788 11.9313L8.75963 9.71214L1.15479 17.317C1.41848 17.4432 1.71002 17.5196 2.02133 17.5196H20.9784C21.2897 17.5196 21.5808 17.4432 21.8445 17.317L14.2401 9.71259Z" fill="white"/>
</svg>
