<svg width="63" height="33" viewBox="0 0 63 33" fill="none" xmlns="http://www.w3.org/2000/svg">
<path d="M26.9407 0.055L17.3925 13.08L8.07583 0H0V32.88H9.17083V14.385L16.2741 24.8784H18.511L26.9407 14.9817V0.055Z" fill="#FE374D"/>
<path d="M38.3236 0.0300293H29.0103V32.9417H38.3236V0.0300293Z" fill="#FE374D"/>
<path d="M51.0894 33.0001H62.7L54.5638 21.3717C55.6521 20.9201 56.6381 20.3634 57.5185 19.7001C58.3989 19.0384 59.1467 18.2867 59.7605 17.4467C60.3742 16.6067 60.8488 15.6867 61.1858 14.6851C61.5229 13.6834 61.6906 12.6101 61.6906 11.4634C61.6906 9.76839 61.32 8.22172 60.5771 6.82506C59.8343 5.42839 58.7946 4.23006 57.4598 3.22839C56.1233 2.22672 54.5353 1.44839 52.6941 0.890054C50.8512 0.333387 48.8306 0.0550537 46.6339 0.0550537H40.3926V7.66172H46.1593C46.753 7.66172 47.313 7.75839 47.8379 7.95172C48.3628 8.14506 48.8222 8.41172 49.218 8.75172C49.6137 9.09006 49.9256 9.49506 50.1537 9.96339C50.3817 10.4317 50.4957 10.9317 50.4957 11.4651C50.4957 12.0301 50.3817 12.5434 50.1537 13.0034C49.9256 13.4634 49.6137 13.8551 49.218 14.1784C48.8222 14.5017 48.3561 14.7517 47.8228 14.9301C47.2879 15.1084 46.7245 15.1967 46.1308 15.1967H40.3943V22.7484H43.8939L51.0894 33.0001Z" fill="#FE374D"/>
<path d="M40.3926 22.7466V22.8016H40.4194L40.3926 22.7466Z" fill="#FE374D"/>
</svg>
