<svg width="63" height="33" viewBox="0 0 63 33" fill="none" xmlns="http://www.w3.org/2000/svg">
<path d="M26.9407 0.055L17.3925 13.08L8.07583 0H0V32.88H9.17083V14.385L16.2741 24.8784H18.511L26.9407 14.9817V0.055Z" fill="white"/>
<path d="M38.3234 0.0300598H29.01V32.9417H38.3234V0.0300598Z" fill="white"/>
<path d="M51.0894 33H62.7L54.5638 21.3717C55.6521 20.92 56.6381 20.3634 57.5185 19.7C58.3989 19.0384 59.1467 18.2867 59.7605 17.4467C60.3742 16.6067 60.8488 15.6867 61.1858 14.685C61.5229 13.6834 61.6906 12.61 61.6906 11.4634C61.6906 9.76836 61.32 8.22169 60.5771 6.82503C59.8343 5.42836 58.7946 4.23003 57.4598 3.22836C56.1233 2.22669 54.5353 1.44836 52.6941 0.890024C50.8512 0.333357 48.8306 0.0550232 46.6339 0.0550232H40.3926V7.66169H46.1593C46.753 7.66169 47.313 7.75836 47.8379 7.95169C48.3628 8.14503 48.8222 8.41169 49.218 8.75169C49.6137 9.09003 49.9256 9.49503 50.1537 9.96336C50.3817 10.4317 50.4957 10.9317 50.4957 11.465C50.4957 12.03 50.3817 12.5434 50.1537 13.0034C49.9256 13.4634 49.6137 13.855 49.218 14.1784C48.8222 14.5017 48.3561 14.7517 47.8228 14.93C47.2879 15.1084 46.7245 15.1967 46.1308 15.1967H40.3943V22.7484H43.8939L51.0894 33Z" fill="white"/>
<path d="M40.3926 22.7466V22.8016H40.4194L40.3926 22.7466Z" fill="white"/>
</svg>
